<?xml version="1.0" encoding="UTF-8" standalone="no"?>
<svg
   xmlns:dc="http://purl.org/dc/elements/1.1/"
   xmlns:cc="http://creativecommons.org/ns#"
   xmlns:rdf="http://www.w3.org/1999/02/22-rdf-syntax-ns#"
   xmlns:svg="http://www.w3.org/2000/svg"
   xmlns="http://www.w3.org/2000/svg"
   version="1.1"
   id="svg2"
   height="100"
   width="236"
   viewBox="0 0 236 100"
   style="isolation:isolate">
  <metadata
     id="metadata47">
    <rdf:RDF>
      <cc:Work
         rdf:about="">
        <dc:format>image/svg+xml</dc:format>
        <dc:type
           rdf:resource="http://purl.org/dc/dcmitype/StillImage" />
        <dc:title></dc:title>
      </cc:Work>
    </rdf:RDF>
  </metadata>
  <defs
     id="defs4">
    <clipPath
       id="_clipPath_ccLGs8x0M7gtLSmefALbunCAZMswWFvM">
      <rect
         id="rect7"
         height="100"
         width="236" />
    </clipPath>
  </defs>
  <g
     id="g9"
     clip-path="url(#_clipPath_ccLGs8x0M7gtLSmefALbunCAZMswWFvM)">
    <line
       id="line13"
       stroke-miterlimit="3"
       stroke-linecap="square"
       stroke-linejoin="miter"
       stroke="rgb(213,157,255)"
       stroke-width="7"
       vector-effect="non-scaling-stroke"
       y2="90.119"
       x2="94.711"
       y1="90.119"
       x1="0.574" />
    <line
       id="line15"
       stroke-miterlimit="3"
       stroke-linecap="square"
       stroke-linejoin="miter"
       stroke="rgb(213,157,255)"
       stroke-width="7"
       vector-effect="non-scaling-stroke"
       y2="90.119"
       x2="243.953"
       y1="90.119"
       x1="117.672" />
    <path
       style="fill:#ff4081;fill-opacity:1"
       id="path17"
       d="M -0.25585938 4.8320312 L -0.25585938 76.220703 L 8.046875 76.220703 L 8.046875 46.533203 L 22.9375 46.533203 L 40.222656 76.220703 L 50.037109 76.220703 L 30.652344 44.140625 C 40.22301 40.819958 45.009766 34.438047 45.009766 24.998047 C 45.009766 18.260047 42.917708 13.215948 38.734375 9.8632812 C 34.551708 6.5099479 28.080885 4.8320312 19.324219 4.8320312 L -0.25585938 4.8320312 z M 8.046875 12.109375 L 18.837891 12.109375 C 24.989891 12.109375 29.456901 13.151042 32.240234 15.234375 C 35.023568 17.317708 36.414062 20.719453 36.414062 25.439453 C 36.414062 30.09412 35.047167 33.584776 32.3125 35.912109 C 29.5785 38.240109 25.283161 39.404297 19.423828 39.404297 L 8.046875 39.404297 L 8.046875 12.109375 z " />
    <path
       style="fill:#ffbf00;fill-opacity:1"
       id="path21"
       d="M 60.457031 21.826172 C 57.299031 21.826172 54.150432 22.233542 51.009766 23.046875 C 47.868432 23.860875 44.980417 24.982063 42.34375 26.414062 L 44.832031 32.617188 C 50.463365 29.882521 55.510703 28.515625 59.970703 28.515625 C 63.942036 28.515625 66.830052 29.515578 68.636719 31.517578 C 70.442719 33.519578 71.345703 36.620979 71.345703 40.820312 L 71.345703 44.140625 L 62.263672 44.433594 C 44.979005 44.95426 36.337891 50.618448 36.337891 61.425781 C 36.337891 66.471115 37.842849 70.361036 40.853516 73.095703 C 43.864849 75.83037 48.022125 77.197266 53.328125 77.197266 C 57.299458 77.197266 60.612958 76.602729 63.265625 75.414062 C 65.918958 74.226062 68.578714 71.956182 71.248047 68.603516 L 71.638672 68.603516 L 73.251953 76.220703 L 79.257812 76.220703 L 79.257812 39.697266 C 79.257812 33.447266 77.719245 28.906219 74.642578 26.074219 C 71.566578 23.242219 66.837031 21.826172 60.457031 21.826172 z M 71.150391 49.902344 L 71.150391 54.736328 C 71.150391 59.716328 69.710745 63.590089 66.830078 66.357422 C 63.949411 69.124089 59.985453 70.507812 54.939453 70.507812 C 51.749453 70.507813 49.268141 69.742891 47.494141 68.212891 C 45.720141 66.682891 44.832031 64.452771 44.832031 61.523438 C 44.832031 57.780104 46.257469 55.02076 49.105469 53.246094 C 51.954135 51.472094 56.601542 50.470188 63.046875 50.242188 L 71.150391 49.902344 z " />
    <path
       id="path25"
       fill="rgb(23,115,0)"
       d=" M 110.477 61.62 L 110.477 61.62 L 110.477 61.62 Q 110.477 69.091 104.911 73.144 L 104.911 73.144 L 104.911 73.144 Q 99.345 77.197 89.286 77.197 L 89.286 77.197 L 89.286 77.197 Q 78.641 77.197 72.684 73.827 L 72.684 73.827 L 72.684 66.308 L 72.684 66.308 Q 76.542 68.261 80.961 69.384 L 80.961 69.384 L 80.961 69.384 Q 85.38 70.507 89.481 70.507 L 89.481 70.507 L 89.481 70.507 Q 95.829 70.507 99.247 68.481 L 99.247 68.481 L 99.247 68.481 Q 102.665 66.454 102.665 62.304 L 102.665 62.304 L 102.665 62.304 Q 102.665 59.179 99.955 56.957 L 99.955 56.957 L 99.955 56.957 Q 97.245 54.736 89.384 51.708 L 89.384 51.708 L 89.384 51.708 Q 81.913 48.925 78.763 46.85 L 78.763 46.85 L 78.763 46.85 Q 75.614 44.775 74.076 42.138 L 74.076 42.138 L 74.076 42.138 Q 72.538 39.501 72.538 35.839 L 72.538 35.839 L 72.538 35.839 Q 72.538 29.296 77.86 25.512 L 77.86 25.512 L 77.86 25.512 Q 83.182 21.728 92.46 21.728 L 92.46 21.728 L 92.46 21.728 Q 101.102 21.728 109.354 25.243 L 109.354 25.243 L 106.473 31.835 L 106.473 31.835 Q 98.417 28.515 91.874 28.515 L 91.874 28.515 L 91.874 28.515 Q 86.112 28.515 83.182 30.322 L 83.182 30.322 L 83.182 30.322 Q 80.253 32.128 80.253 35.302 L 80.253 35.302 L 80.253 35.302 Q 80.253 37.451 81.351 38.964 L 81.351 38.964 L 81.351 38.964 Q 82.45 40.478 84.891 41.845 L 84.891 41.845 L 84.891 41.845 Q 87.333 43.212 94.266 45.8 L 94.266 45.8 L 94.266 45.8 Q 103.788 49.267 107.133 52.783 L 107.133 52.783 L 107.133 52.783 Q 110.477 56.298 110.477 61.62 Z " />
    <path
       style="fill:#00a4bd;fill-opacity:1"
       id="path27"
       d="M 128.5625 21.728516 C 124.98183 21.728516 121.80964 22.379641 119.04297 23.681641 C 116.27564 24.983641 113.84896 27.099297 111.76562 30.029297 L 111.37695 30.029297 L 110.25391 22.703125 L 103.66016 22.703125 L 103.66016 100.24219 L 111.76562 100.24219 L 111.76562 78.222656 C 111.76563 75.423323 111.57035 72.461271 111.17969 69.335938 L 111.76562 69.335938 C 113.71896 72.005271 116.13691 73.981578 119.01758 75.267578 C 121.89891 76.553578 125.07983 77.197266 128.5625 77.197266 C 135.52917 77.197266 140.97448 74.763151 144.89648 69.896484 C 148.81915 65.029818 150.7793 58.201443 150.7793 49.412109 C 150.7793 40.656109 148.85147 33.854573 144.99414 29.003906 C 141.13681 24.153906 135.65917 21.728516 128.5625 21.728516 z M 127.39062 28.613281 C 132.14329 28.613281 135.83051 30.394984 138.45117 33.958984 C 141.07184 37.523651 142.38281 42.643073 142.38281 49.316406 C 142.38281 55.89174 141.07184 61.051589 138.45117 64.794922 C 135.83051 68.538255 132.20989 70.408203 127.58789 70.408203 C 122.05389 70.408203 118.03206 68.789448 115.52539 65.550781 C 113.01872 62.312115 111.76562 56.932109 111.76562 49.412109 L 111.76562 47.607422 C 111.83096 40.999422 113.08406 36.18163 115.52539 33.154297 C 117.96672 30.126964 121.92196 28.613281 127.39062 28.613281 z " />
    <path
       id="path31"
       fill="rgb(36,0,155)"
       d=" M 153.046 22.704 L 153.046 76.22 L 144.94 76.22 L 144.94 22.704 L 153.046 22.704 Z " />
    <path
       id="path33"
       fill="rgb(36,0,155)"
       d=" M 144.257 8.202 L 144.257 8.202 L 144.257 8.202 Q 144.257 5.419 145.624 4.125 L 145.624 4.125 L 145.624 4.125 Q 146.991 2.831 149.042 2.831 L 149.042 2.831 L 149.042 2.831 Q 150.995 2.831 152.411 4.15 L 152.411 4.15 L 152.411 4.15 Q 153.827 5.468 153.827 8.202 L 153.827 8.202 L 153.827 8.202 Q 153.827 10.937 152.411 12.28 L 152.411 12.28 L 152.411 12.28 Q 150.995 13.622 149.042 13.622 L 149.042 13.622 L 149.042 13.622 Q 146.991 13.622 145.624 12.28 L 145.624 12.28 L 145.624 12.28 Q 144.257 10.937 144.257 8.202 Z " />
    <path
       id="path35"
       fill="rgb(255,33,218)"
       d=" M 158.339 0.243 L 158.339 76.22 L 150.233 76.22 L 150.233 0.243 L 158.339 0.243 Z " />
    <path
       style="fill:#ff4081;fill-opacity:1"
       id="path37"
       d="M 227.61523 0.2421875 L 227.61523 22.021484 L 227.81055 25.78125 L 228.15234 29.638672 L 227.51758 29.638672 C 223.64424 24.365339 218.07769 21.728516 210.81836 21.728516 C 203.85236 21.728516 198.41772 24.170068 194.51172 29.052734 C 190.60505 33.935401 188.65039 40.787375 188.65039 49.609375 C 188.65039 58.430708 190.59633 65.234198 194.48633 70.019531 C 198.37633 74.804865 203.81969 77.197266 210.81836 77.197266 C 218.27303 77.197266 223.8719 74.479635 227.61523 69.042969 L 228.05469 69.042969 L 229.13086 76.220703 L 235.7207 76.220703 L 235.7207 0.2421875 L 227.61523 0.2421875 z M 212.62305 28.515625 C 218.15705 28.515625 222.18436 30.13438 224.70703 33.373047 C 227.2297 36.61238 228.49219 42.024708 228.49219 49.609375 L 228.49219 51.318359 C 228.49219 58.023693 227.24781 62.881245 224.75781 65.892578 C 222.26715 68.903245 218.25404 70.408203 212.7207 70.408203 C 207.87004 70.408203 204.19155 68.668214 201.68555 65.185547 C 199.17888 61.702214 197.92578 56.541078 197.92578 49.705078 C 197.92578 42.967078 199.18827 37.751307 201.71094 34.056641 C 204.2336 30.361974 207.87038 28.515625 212.62305 28.515625 z " />
    <path
       style="fill:#ff0048;fill-opacity:1"
       id="path39"
       d="M 176.0332 21.728516 C 168.87187 21.728516 163.16792 24.267703 158.91992 29.345703 C 154.67192 34.423703 152.54883 41.275677 152.54883 49.902344 C 152.54883 58.46301 154.83487 65.152703 159.4082 69.970703 C 163.98154 74.788703 170.2241 77.197266 178.13477 77.197266 C 181.7481 77.197266 184.83139 76.927958 187.38672 76.390625 C 189.94205 75.853292 192.65162 74.967135 195.51562 73.730469 L 195.51562 66.503906 C 189.88429 68.91324 184.18907 70.117188 178.42773 70.117188 C 172.9584 70.117188 168.7177 68.489708 165.70703 65.234375 C 162.6957 61.979042 161.10798 57.210401 160.94531 50.927734 L 197.81055 50.927734 L 197.81055 45.800781 C 197.81055 38.574115 195.85717 32.754417 191.95117 28.34375 C 188.04517 23.933083 182.7392 21.728516 176.0332 21.728516 z M 175.93555 28.515625 C 180.16755 28.515625 183.42251 29.873797 185.70117 32.591797 C 187.97984 35.309797 189.11914 39.225271 189.11914 44.335938 L 161.14062 44.335938 C 161.59662 39.387938 163.10287 35.514177 165.6582 32.714844 C 168.21354 29.91551 171.63888 28.515625 175.93555 28.515625 z " />
  </g>
</svg>
