<?xml version="1.0" standalone="no"?><!-- Generator: Gravit.io --><svg xmlns="http://www.w3.org/2000/svg" xmlns:xlink="http://www.w3.org/1999/xlink" style="isolation:isolate" viewBox="0 0 236 100" width="236" height="100"><defs><clipPath id="_clipPath_ccLGs8x0M7gtLSmefALbunCAZMswWFvM"><rect width="236" height="100"/></clipPath></defs><g clip-path="url(#_clipPath_ccLGs8x0M7gtLSmefALbunCAZMswWFvM)"><rect width="236" height="100" style="fill:rgb(223,233,237)"/><line x1="0.574" y1="90.119" x2="94.711" y2="90.119" vector-effect="non-scaling-stroke" stroke-width="7" stroke="rgb(213,157,255)" stroke-linejoin="miter" stroke-linecap="square" stroke-miterlimit="3"/><line x1="117.672" y1="90.119" x2="243.953" y2="90.119" vector-effect="non-scaling-stroke" stroke-width="7" stroke="rgb(213,157,255)" stroke-linejoin="miter" stroke-linecap="square" stroke-miterlimit="3"/><path d=" M 22.938 46.533 L 8.046 46.533 L 8.046 76.22 L -0.255 76.22 L -0.255 4.833 L 19.325 4.833 L 19.325 4.833 Q 32.46 4.833 38.734 9.863 L 38.734 9.863 L 38.734 9.863 Q 45.009 14.892 45.009 24.999 L 45.009 24.999 L 45.009 24.999 Q 45.009 39.159 30.653 44.14 L 30.653 44.14 L 50.038 76.22 L 40.223 76.22 L 22.938 46.533 Z " fill="rgb(255,64,129)"/><path d=" M 8.046 12.109 L 8.046 39.404 L 19.423 39.404 L 19.423 39.404 Q 28.212 39.404 32.313 35.912 L 32.313 35.912 L 32.313 35.912 Q 36.415 32.421 36.415 25.439 L 36.415 25.439 L 36.415 25.439 Q 36.415 18.359 32.24 15.234 L 32.24 15.234 L 32.24 15.234 Q 28.065 12.109 18.837 12.109 L 18.837 12.109 L 8.046 12.109 Z " fill="rgb(223,233,237)"/><path d=" M 79.257 76.22 L 73.251 76.22 L 71.639 68.603 L 71.249 68.603 L 71.249 68.603 Q 67.245 73.632 63.265 75.414 L 63.265 75.414 L 63.265 75.414 Q 59.286 77.197 53.329 77.197 L 53.329 77.197 L 53.329 77.197 Q 45.37 77.197 40.853 73.095 L 40.853 73.095 L 40.853 73.095 Q 36.337 68.993 36.337 61.425 L 36.337 61.425 L 36.337 61.425 Q 36.337 45.214 62.264 44.433 L 62.264 44.433 L 71.346 44.14 L 71.346 40.82 L 71.346 40.82 Q 71.346 34.521 68.637 31.518 L 68.637 31.518 L 68.637 31.518 Q 65.927 28.515 59.97 28.515 L 59.97 28.515 L 59.97 28.515 Q 53.28 28.515 44.833 32.617 L 44.833 32.617 L 42.343 26.415 L 42.343 26.415 Q 46.298 24.267 51.01 23.046 L 51.01 23.046 L 51.01 23.046 Q 55.721 21.826 60.458 21.826 L 60.458 21.826 L 60.458 21.826 Q 70.028 21.826 74.642 26.074 L 74.642 26.074 L 74.642 26.074 Q 79.257 30.322 79.257 39.697 L 79.257 39.697 L 79.257 76.22 Z " fill="rgb(255,191,0)"/><path d=" M 54.94 70.507 L 54.94 70.507 L 54.94 70.507 Q 62.509 70.507 66.83 66.357 L 66.83 66.357 L 66.83 66.357 Q 71.151 62.206 71.151 54.736 L 71.151 54.736 L 71.151 49.902 L 63.046 50.243 L 63.046 50.243 Q 53.378 50.585 49.105 53.246 L 49.105 53.246 L 49.105 53.246 Q 44.833 55.908 44.833 61.523 L 44.833 61.523 L 44.833 61.523 Q 44.833 65.917 47.494 68.212 L 47.494 68.212 L 47.494 68.212 Q 50.155 70.507 54.94 70.507 Z " fill="rgb(223,233,237)"/><path d=" M 110.477 61.62 L 110.477 61.62 L 110.477 61.62 Q 110.477 69.091 104.911 73.144 L 104.911 73.144 L 104.911 73.144 Q 99.345 77.197 89.286 77.197 L 89.286 77.197 L 89.286 77.197 Q 78.641 77.197 72.684 73.827 L 72.684 73.827 L 72.684 66.308 L 72.684 66.308 Q 76.542 68.261 80.961 69.384 L 80.961 69.384 L 80.961 69.384 Q 85.38 70.507 89.481 70.507 L 89.481 70.507 L 89.481 70.507 Q 95.829 70.507 99.247 68.481 L 99.247 68.481 L 99.247 68.481 Q 102.665 66.454 102.665 62.304 L 102.665 62.304 L 102.665 62.304 Q 102.665 59.179 99.955 56.957 L 99.955 56.957 L 99.955 56.957 Q 97.245 54.736 89.384 51.708 L 89.384 51.708 L 89.384 51.708 Q 81.913 48.925 78.763 46.85 L 78.763 46.85 L 78.763 46.85 Q 75.614 44.775 74.076 42.138 L 74.076 42.138 L 74.076 42.138 Q 72.538 39.501 72.538 35.839 L 72.538 35.839 L 72.538 35.839 Q 72.538 29.296 77.86 25.512 L 77.86 25.512 L 77.86 25.512 Q 83.182 21.728 92.46 21.728 L 92.46 21.728 L 92.46 21.728 Q 101.102 21.728 109.354 25.243 L 109.354 25.243 L 106.473 31.835 L 106.473 31.835 Q 98.417 28.515 91.874 28.515 L 91.874 28.515 L 91.874 28.515 Q 86.112 28.515 83.182 30.322 L 83.182 30.322 L 83.182 30.322 Q 80.253 32.128 80.253 35.302 L 80.253 35.302 L 80.253 35.302 Q 80.253 37.451 81.351 38.964 L 81.351 38.964 L 81.351 38.964 Q 82.45 40.478 84.891 41.845 L 84.891 41.845 L 84.891 41.845 Q 87.333 43.212 94.266 45.8 L 94.266 45.8 L 94.266 45.8 Q 103.788 49.267 107.133 52.783 L 107.133 52.783 L 107.133 52.783 Q 110.477 56.298 110.477 61.62 Z " fill="rgb(23,115,0)"/><path d=" M 128.563 77.197 L 128.563 77.197 L 128.563 77.197 Q 123.339 77.197 119.017 75.268 L 119.017 75.268 L 119.017 75.268 Q 114.696 73.339 111.766 69.335 L 111.766 69.335 L 111.18 69.335 L 111.18 69.335 Q 111.766 74.023 111.766 78.222 L 111.766 78.222 L 111.766 100.243 L 103.661 100.243 L 103.661 22.704 L 110.253 22.704 L 111.376 30.029 L 111.766 30.029 L 111.766 30.029 Q 114.891 25.634 119.042 23.681 L 119.042 23.681 L 119.042 23.681 Q 123.192 21.728 128.563 21.728 L 128.563 21.728 L 128.563 21.728 Q 139.208 21.728 144.994 29.003 L 144.994 29.003 L 144.994 29.003 Q 150.78 36.279 150.78 49.413 L 150.78 49.413 L 150.78 49.413 Q 150.78 62.597 144.896 69.897 L 144.896 69.897 L 144.896 69.897 Q 139.013 77.197 128.563 77.197 Z " fill="rgb(0,164,189)"/><path d=" M 127.391 28.613 L 127.391 28.613 L 127.391 28.613 Q 119.188 28.613 115.526 33.154 L 115.526 33.154 L 115.526 33.154 Q 111.864 37.695 111.766 47.607 L 111.766 47.607 L 111.766 49.413 L 111.766 49.413 Q 111.766 60.693 115.526 65.551 L 115.526 65.551 L 115.526 65.551 Q 119.286 70.409 127.587 70.409 L 127.587 70.409 L 127.587 70.409 Q 134.52 70.409 138.451 64.794 L 138.451 64.794 L 138.451 64.794 Q 142.382 59.179 142.382 49.316 L 142.382 49.316 L 142.382 49.316 Q 142.382 39.306 138.451 33.959 L 138.451 33.959 L 138.451 33.959 Q 134.52 28.613 127.391 28.613 Z " fill="rgb(223,233,237)"/><path d=" M 153.046 22.704 L 153.046 76.22 L 144.94 76.22 L 144.94 22.704 L 153.046 22.704 Z " fill="rgb(36,0,155)"/><path d=" M 144.257 8.202 L 144.257 8.202 L 144.257 8.202 Q 144.257 5.419 145.624 4.125 L 145.624 4.125 L 145.624 4.125 Q 146.991 2.831 149.042 2.831 L 149.042 2.831 L 149.042 2.831 Q 150.995 2.831 152.411 4.15 L 152.411 4.15 L 152.411 4.15 Q 153.827 5.468 153.827 8.202 L 153.827 8.202 L 153.827 8.202 Q 153.827 10.937 152.411 12.28 L 152.411 12.28 L 152.411 12.28 Q 150.995 13.622 149.042 13.622 L 149.042 13.622 L 149.042 13.622 Q 146.991 13.622 145.624 12.28 L 145.624 12.28 L 145.624 12.28 Q 144.257 10.937 144.257 8.202 Z " fill="rgb(36,0,155)"/><path d=" M 158.339 0.243 L 158.339 76.22 L 150.233 76.22 L 150.233 0.243 L 158.339 0.243 Z " fill="rgb(255,33,218)"/><path d=" M 229.13 76.22 L 228.055 69.042 L 227.616 69.042 L 227.616 69.042 Q 222.001 77.197 210.819 77.197 L 210.819 77.197 L 210.819 77.197 Q 200.321 77.197 194.486 70.019 L 194.486 70.019 L 194.486 70.019 Q 188.651 62.841 188.651 49.609 L 188.651 49.609 L 188.651 49.609 Q 188.651 36.376 194.511 29.052 L 194.511 29.052 L 194.511 29.052 Q 200.37 21.728 210.819 21.728 L 210.819 21.728 L 210.819 21.728 Q 221.708 21.728 227.518 29.638 L 227.518 29.638 L 228.153 29.638 L 227.811 25.781 L 227.616 22.021 L 227.616 0.243 L 235.721 0.243 L 235.721 76.22 L 229.13 76.22 Z " fill="rgb(255,64,129)"/><path d=" M 178.134 77.197 L 178.134 77.197 L 178.134 77.197 Q 166.268 77.197 159.408 69.97 L 159.408 69.97 L 159.408 69.97 Q 152.548 62.743 152.548 49.902 L 152.548 49.902 L 152.548 49.902 Q 152.548 36.962 158.92 29.345 L 158.92 29.345 L 158.92 29.345 Q 165.292 21.728 176.034 21.728 L 176.034 21.728 L 176.034 21.728 Q 186.093 21.728 191.952 28.344 L 191.952 28.344 L 191.952 28.344 Q 197.811 34.96 197.811 45.8 L 197.811 45.8 L 197.811 50.927 L 160.946 50.927 L 160.946 50.927 Q 161.19 60.351 165.707 65.234 L 165.707 65.234 L 165.707 65.234 Q 170.223 70.117 178.427 70.117 L 178.427 70.117 L 178.427 70.117 Q 187.069 70.117 195.516 66.503 L 195.516 66.503 L 195.516 73.73 L 195.516 73.73 Q 191.22 75.585 187.387 76.391 L 187.387 76.391 L 187.387 76.391 Q 183.554 77.197 178.134 77.197 Z " fill="rgb(255,0,72)"/><path d=" M 175.936 28.515 L 175.936 28.515 L 175.936 28.515 Q 169.491 28.515 165.658 32.714 L 165.658 32.714 L 165.658 32.714 Q 161.825 36.913 161.141 44.335 L 161.141 44.335 L 189.12 44.335 L 189.12 44.335 Q 189.12 36.669 185.702 32.592 L 185.702 32.592 L 185.702 32.592 Q 182.284 28.515 175.936 28.515 Z " fill="rgb(223,233,237)"/><path d=" M 212.721 70.409 L 212.721 70.409 L 212.721 70.409 Q 221.021 70.409 224.757 65.893 L 224.757 65.893 L 224.757 65.893 Q 228.492 61.376 228.492 51.318 L 228.492 51.318 L 228.492 49.609 L 228.492 49.609 Q 228.492 38.232 224.708 33.373 L 224.708 33.373 L 224.708 33.373 Q 220.924 28.515 212.623 28.515 L 212.623 28.515 L 212.623 28.515 Q 205.494 28.515 201.71 34.057 L 201.71 34.057 L 201.71 34.057 Q 197.926 39.599 197.926 49.706 L 197.926 49.706 L 197.926 49.706 Q 197.926 59.96 201.686 65.185 L 201.686 65.185 L 201.686 65.185 Q 205.445 70.409 212.721 70.409 Z " fill="rgb(223,233,237)"/></g></svg>